<svg id="Layer_1" height="512" viewBox="0 0 512 512" width="512" xmlns="http://www.w3.org/2000/svg" data-name="Layer 1"><path d="m158.607 109.324a10.75 10.75 0 0 0 -10.8-10.675c-.35 0-.706.018-1.088.055a5 5 0 0 1 -5.429-5.713 15.4 15.4 0 0 0 .193-2.289 15.851 15.851 0 1 0 -31.6 1.726 5 5 0 0 1 -7.552 4.828 9.231 9.231 0 0 0 -4.763-1.333 9.132 9.132 0 0 0 -9.177 9.065c0 5.566 5.3 12.154 9.777 12.154h48.468c1.227 0 11.971-.219 11.971-7.818z"/><path d="m345.633 81.314a14.746 14.746 0 0 0 -5.377-11.385l-54.947-45.471a15.115 15.115 0 0 0 -19.225-.018l-55.192 45.5a14.736 14.736 0 0 0 -5.4 11.4v130.241h140.141zm-70.071-13.622a25.257 25.257 0 1 1 -25.417 25.256 25.366 25.366 0 0 1 25.417-25.256zm37.944 89.852-8.315 9.112a5 5 0 0 1 -3.629 1.628 5.056 5.056 0 0 1 -3.669-1.535l-9.021-9.391-11.283 9.716a5 5 0 0 1 -6.972-.436l-8.22-9.093-10.436 9.446a5 5 0 0 1 -7.2-.506l-7.465-8.964a5 5 0 0 1 7.684-6.4l4.13 4.959 10.283-9.308a5 5 0 0 1 7.064.354l8.3 9.184 11.172-9.62a5 5 0 0 1 6.868.325l8.6 8.954 4.716-5.167a5 5 0 0 1 7.064-.323 5 5 0 0 1 .329 7.065z"/><path d="m275.562 108.2a15.257 15.257 0 1 0 -15.417-15.256 15.354 15.354 0 0 0 15.417 15.256z"/><path d="m270.328 283.848c-6.957.372-12.7 4.676-16.073 7.917 6.726 4.431 20.931 11.084 34.814.433-6.269-5.875-12.543-8.676-18.741-8.35z"/><path d="m185.929 363.538h179.268v19.652h-179.268z"/><path d="m345.633 221.581h-140.141v131.957h140.141zm-69.021 92.273c.656.778 1.845 1.825 4.6 1.942 3.983.17 12.984-.013 18.65-.156a5 5 0 0 1 .253 10c-4.072.1-9.853.226-14.42.226-1.924 0-3.633-.022-4.907-.076a15.837 15.837 0 0 1 -11.87-5.54c-3.425-4.1-4.33-9.446-4.48-13.294q-1.506-.351-2.9-.78v17.056a5 5 0 1 1 -10 0v-21.448a48.873 48.873 0 0 1 -8-5.623 5 5 0 0 1 -.7-6.606c.433-.605 10.8-14.829 26.946-15.692 9.97-.536 19.62 4.062 28.725 13.647l1.564.03a5 5 0 0 1 -.195 10l-1.619-.032c-8.062 7.457-16.332 10.138-23.719 10.44a11.244 11.244 0 0 0 2.072 5.906zm31.6-36.4h-4.45a4.952 4.952 0 0 1 -3.67-1.6c-7.869-8.665-16.671-13.2-26.159-13.492-12.694-.4-23.821 6.722-29.165 10.844a5 5 0 0 1 -6.055-7.956c6.522-5.01 19.816-13.355 35.523-12.884 11.65.354 22.3 5.429 31.688 15.091h2.288a5 5 0 0 1 0 10z"/><path d="m358.83 468.652h-166.53a23.718 23.718 0 0 0 -23.655 22.348h213.835a23.718 23.718 0 0 0 -23.65-22.348z"/><path d="m423.607 167.855a10.749 10.749 0 0 0 -10.8-10.674c-.349 0-.713.018-1.083.055a5 5 0 0 1 -5.434-5.713 15.407 15.407 0 0 0 .193-2.289 15.851 15.851 0 1 0 -31.6 1.726 5 5 0 0 1 -7.552 4.827 9.209 9.209 0 0 0 -11.7 1.809v18.078h56.005c1.227 0 11.971-.22 11.971-7.819z"/><path d="m355.177 458.652v-65.461h-159.229v65.461zm-107.763-15.383h-34.345a5 5 0 1 1 0-10h34.345a5 5 0 0 1 0 10zm89.158 0h-66.536a5 5 0 0 1 0-10h66.536a5 5 0 0 1 0 10zm-1.344-37.762h.344a5 5 0 0 1 0 10h-.344a5 5 0 0 1 0-10zm-32 0h14.344a5 5 0 0 1 0 10h-14.344a5 5 0 0 1 0-10zm-91.159 0h72.536a5 5 0 0 1 0 10h-72.536a5 5 0 0 1 0-10z"/></svg>