<svg id="Layer_1" height="512" viewBox="0 0 512 512" width="512" xmlns="http://www.w3.org/2000/svg" data-name="Layer 1"><path d="m360.18 463.69h-169.23a28.667 28.667 0 0 0 -27.34 28.65v3.66h223.91v-3.66a28.674 28.674 0 0 0 -27.34-28.65z" fill="#c79a83"/><path d="m180.93 358.54h189.27v29.65h-189.27z" fill="#c79a83"/><path d="m343.44 66.08-54.94-45.48a20.13 20.13 0 0 0 -25.6-.02l-55.19 45.5a19.772 19.772 0 0 0 -7.22 15.26v135.24h150.14v-135.27a19.76 19.76 0 0 0 -7.19-15.23z" fill="#807b87"/><path d="m147.81 93.65c-.53 0-1.06.03-1.57.08a21.6 21.6 0 0 0 .24-3.03 20.851 20.851 0 0 0 -41.7 0 21.136 21.136 0 0 0 .13 2.27 14.177 14.177 0 0 0 -21.52 12.02c0 7.76 6.95 17.15 14.78 17.15h48.47c8.72 0 16.97-4.16 16.97-12.82a15.742 15.742 0 0 0 -15.8-15.67z" fill="#d4e1f4"/><path d="m275.56 72.69a20.256 20.256 0 1 1 -20.42 20.26 20.339 20.339 0 0 1 20.42-20.26z" fill="#4689d3"/><path d="m358.83 463.65h-166.53c-.45 0-.9.01-1.35.04v-75.5h169.23v75.5c-.45-.03-.9-.04-1.35-.04z" fill="#80554b"/><path d="m350.63 216.58v141.96h-150.14v-141.96z" fill="#6a859b"/><path d="m412.81 152.18c-.53 0-1.06.03-1.57.08a21.6 21.6 0 0 0 .24-3.03 20.851 20.851 0 0 0 -41.7 0 21.136 21.136 0 0 0 .13 2.27 14.215 14.215 0 0 0 -19.28 4.43v24.74h61.01c8.72 0 16.97-4.16 16.97-12.82a15.742 15.742 0 0 0 -15.8-15.67z" fill="#d4e1f4"/><path d="m220.95 463.69h-30a28.667 28.667 0 0 0 -27.34 28.65v3.66h30v-3.66a28.667 28.667 0 0 1 27.34-28.65z" fill="#af8674"/><path d="m180.93 358.54h30v29.65h-30z" fill="#af8674"/><path d="m230.49 81.34a19.772 19.772 0 0 1 7.22-15.26l52.973-43.673-2.183-1.807a20.13 20.13 0 0 0 -25.6-.02l-55.19 45.5a19.772 19.772 0 0 0 -7.22 15.26v135.24h30z" fill="#6a6670"/><path d="m360.18 463.69v-.04h-1.35c.45 0 .9.01 1.35.04z" fill="#80554b"/><path d="m190.95 388.19v75.5c.45-.03.9-.04 1.35-.04h28.65v-75.46z" fill="#68453e"/><path d="m200.49 216.58h30v141.96h-30z" fill="#597182"/><path d="m304.987 298.635h-.119l-8.688-.169a6 6 0 1 1 .234-12l8.689.169a6 6 0 0 1 -.116 12z" fill="#d8a43d"/><path d="m237.914 278.448a6 6 0 0 1 -4.186-10.3c.733-.713 18.223-17.465 40.539-16.792 11.8.359 22.576 5.433 32.078 15.091h6.867a6 6 0 0 1 0 12h-9.45a6 6 0 0 1 -4.439-1.963c-7.673-8.435-16.225-12.854-25.421-13.133-17.3-.531-31.66 13.256-31.8 13.4a5.982 5.982 0 0 1 -4.188 1.697z" fill="#d4e1f4"/><path d="m256.545 292.792a6 6 0 0 0 -6 6v29.436a6 6 0 1 0 12 0v-29.436a6 6 0 0 0 -6-6z" fill="#4ca987"/><path d="m304.8 314.5c-.174.006-17.555.549-23.537.3-2.363-.1-3.346-.952-3.879-1.585-2.183-2.588-2.064-7.957-1.85-9.64a6 6 0 0 0 -11.891-1.612c-.163 1.188-1.426 11.812 4.516 18.928a16.816 16.816 0 0 0 12.6 5.9c1.286.055 3.007.076 4.945.076 7.73 0 18.893-.348 19.479-.366a6 6 0 0 0 -.379-12z" fill="#4ca987"/><path d="m274.328 169.284a5.985 5.985 0 0 1 -4.453-1.977l-7.549-8.351-9.694 8.776a6 6 0 0 1 -8.637-.608l-10.664-12.806a6 6 0 1 1 9.221-7.679l6.663 8 9.51-8.609a6 6 0 0 1 8.477.425l7.648 8.46 10.432-8.983a6 6 0 0 1 8.242.39l7.862 8.184 7.366-8.072a6 6 0 1 1 8.863 8.089l-11.685 12.805a6 6 0 0 1 -4.355 1.955 5.9 5.9 0 0 1 -4.4-1.843l-8.364-8.707-10.566 9.1a5.981 5.981 0 0 1 -3.917 1.451z" fill="#b0b5ca"/><g fill="#e1b7a3"><path d="m284.605 416.505h-72.536a6 6 0 1 1 0-12h72.536a6 6 0 0 1 0 12z"/><path d="m317.572 416.505h-14.344a6 6 0 1 1 0-12h14.344a6 6 0 0 1 0 12z"/><path d="m336.572 444.268h-66.536a6 6 0 0 1 0-12h66.536a6 6 0 0 1 0 12z"/><path d="m247.414 444.268h-34.345a6 6 0 0 1 0-12h34.345a6 6 0 1 1 0 12z"/><path d="m335.572 416.505h-.344a6 6 0 1 1 0-12h.344a6 6 0 0 1 0 12z"/></g><path d="m300.774 288.472c-9.757-10.938-20.221-16.195-31.033-15.609-16.619.888-27.261 15.488-27.706 16.109a6 6 0 0 0 .835 7.927 53.02 53.02 0 0 0 18.141 10.157 40.59 40.59 0 0 0 12.123 1.926c8.432 0 18.115-2.911 27.422-12.29a6 6 0 0 0 .218-8.22z" fill="#d9bb4b"/></svg>