<svg id="Layer_1" height="512" viewBox="0 0 512 512" width="512" xmlns="http://www.w3.org/2000/svg" data-name="Layer 1"><path d="m180.93 358.54h30v29.65h-30z" fill="#d4e1f4"/><path d="m262.9 20.58-55.19 45.5a19.772 19.772 0 0 0 -7.22 15.26v135.24 141.96h30v-141.96-135.24a19.772 19.772 0 0 1 7.22-15.26l52.974-43.673-2.184-1.807a20.13 20.13 0 0 0 -25.6-.02z" fill="#d4e1f4"/><path d="m192.3 463.65h28.65v-75.46h-30v75.5a28.667 28.667 0 0 0 -27.34 28.65v3.66h30v-3.66a28.667 28.667 0 0 1 27.34-28.65h-30c.45-.03.901-.04 1.35-.04z" fill="#d4e1f4"/><path d="m212.069 416.505h72.536a6 6 0 0 0 0-12h-72.536a6 6 0 1 0 0 12z" fill="#0635c9"/><path d="m303.228 416.505h14.344a6 6 0 0 0 0-12h-14.344a6 6 0 1 0 0 12z" fill="#0635c9"/><path d="m336.572 432.268h-66.536a6 6 0 0 0 0 12h66.536a6 6 0 0 0 0-12z" fill="#0635c9"/><path d="m247.414 432.268h-34.345a6 6 0 0 0 0 12h34.345a6 6 0 1 0 0-12z" fill="#0635c9"/><path d="m335.228 416.505h.344a6 6 0 0 0 0-12h-.344a6 6 0 1 0 0 12z" fill="#0635c9"/><g fill="#1ae5be"><path d="m304.868 298.634h.119a6 6 0 0 0 .116-12l-6.14-.119c-9.236-9.608-19.076-14.2-29.222-13.654-16.619.888-27.261 15.488-27.706 16.109a6 6 0 0 0 .835 7.927 49.361 49.361 0 0 0 7.675 5.46v25.869a6 6 0 1 0 12 0v-20.721q.463.126.939.245c.249 3.933 1.3 9.1 4.671 13.137a16.816 16.816 0 0 0 12.6 5.9c1.286.055 3.007.076 4.945.076 7.73 0 18.893-.348 19.479-.366a6 6 0 0 0 -.379-12c-.174.006-17.555.549-23.537.3-2.363-.1-3.346-.952-3.879-1.585a9.079 9.079 0 0 1 -1.706-4.327c7.218-.509 15.187-3.278 22.976-10.371zm-39.925-2.924a39.346 39.346 0 0 1 -9.043-4.127c3.33-2.983 8.456-6.439 14.552-6.741 5.607-.274 11.311 2.169 17.052 7.279a24.74 24.74 0 0 1 -22.561 3.589z"/><path d="m237.914 278.448a5.982 5.982 0 0 0 4.185-1.7c.143-.14 14.5-13.927 31.8-13.4 9.2.279 17.748 4.7 25.421 13.133a6 6 0 0 0 4.439 1.963h9.45a6 6 0 0 0 0-12h-6.867c-9.5-9.658-20.282-14.732-32.078-15.091-22.316-.673-39.806 16.079-40.539 16.792a6 6 0 0 0 4.186 10.3z"/><path d="m244 167.124a6 6 0 0 0 8.637.608l9.694-8.776 7.549 8.351a6 6 0 0 0 8.366.524l10.566-9.1 8.364 8.707a5.9 5.9 0 0 0 4.4 1.843 6 6 0 0 0 4.355-1.955l11.685-12.805a6 6 0 1 0 -8.863-8.089l-7.366 8.072-7.862-8.184a6 6 0 0 0 -8.242-.39l-10.432 8.983-7.648-8.46a6 6 0 0 0 -8.477-.425l-9.51 8.609-6.663-8a6 6 0 1 0 -9.221 7.679z"/><path d="m275.562 119.2a26.256 26.256 0 1 0 -26.417-26.256 26.366 26.366 0 0 0 26.417 26.256zm0-40.512a14.257 14.257 0 1 1 -14.417 14.256 14.353 14.353 0 0 1 14.417-14.253z"/><path d="m169.607 109.323a21.74 21.74 0 0 0 -17.247-21.2 26.879 26.879 0 0 0 -52.96-3.118q-.909-.084-1.828-.084a20.145 20.145 0 0 0 -20.177 20.066 24.782 24.782 0 0 0 5.809 15.29c4.091 5 9.546 7.864 14.968 7.864h48.468c13.522 0 22.967-7.741 22.967-18.818zm-22.969 6.818h-48.468c-3.938 0-8.777-6.151-8.777-11.154a8.132 8.132 0 0 1 8.177-8.066 8.233 8.233 0 0 1 4.247 1.19 6 6 0 0 0 9.062-5.794 14.611 14.611 0 0 1 -.1-1.616 14.851 14.851 0 0 1 29.7 0 14.384 14.384 0 0 1 -.182 2.142 6 6 0 0 0 6.514 6.855c.35-.033.674-.05.992-.05a9.749 9.749 0 0 1 9.8 9.675c.004 6.626-9.842 6.818-10.965 6.818z"/><path d="m417.36 146.655a26.879 26.879 0 0 0 -52.962-3.118q-.909-.084-1.828-.084a20.14 20.14 0 0 0 -16.979 9.22l10.076 6.519a8.218 8.218 0 0 1 11.15-2.549 6 6 0 0 0 9.062-5.793 14.839 14.839 0 1 1 29.6-1.618 14.4 14.4 0 0 1 -.182 2.143 6 6 0 0 0 6.52 6.854c.338-.033.669-.049.986-.049a9.748 9.748 0 0 1 9.8 9.674c0 6.627-9.846 6.818-10.969 6.818h-61v12h61.005c13.524 0 22.969-7.738 22.969-18.818a21.741 21.741 0 0 0 -17.248-21.199z"/></g><path d="m163.607 502h223.911a6 6 0 0 0 6-6v-3.662a34.743 34.743 0 0 0 -27.341-33.9v-64.249h4.023a6 6 0 0 0 6-6v-29.652a6 6 0 0 0 -6-6h-13.567v-271.225a25.708 25.708 0 0 0 -9.363-19.858l-54.949-45.472a26.131 26.131 0 0 0 -33.234-.031l-55.187 45.494a25.7 25.7 0 0 0 -9.4 19.891v271.2h-13.571a6 6 0 0 0 -6 6v29.652a6 6 0 0 0 6 6h4.019v64.252a34.743 34.743 0 0 0 -27.341 33.9v3.66a6 6 0 0 0 6 6zm47.92-431.295 55.193-45.495a14.112 14.112 0 0 1 17.951.018l54.947 45.472a13.745 13.745 0 0 1 5.015 10.614v129.266h-138.141v-129.244a13.742 13.742 0 0 1 5.035-10.631zm-24.6 293.832h29.246a6 6 0 0 0 0-12h-9.683v-129.957h138.143v129.957h-88.458a6 6 0 0 0 0 12h108.025v17.652h-177.271zm167.248 29.652v63.462h-157.227v-63.462zm-161.875 75.462h166.53a22.719 22.719 0 0 1 22.57 20.349h-211.673a22.719 22.719 0 0 1 22.573-20.349z" fill="#0635c9"/></svg>