<svg id="Layer_1" height="512" viewBox="0 0 512 512" width="512" xmlns="http://www.w3.org/2000/svg" data-name="Layer 1"><path d="m212.069 416.505h72.536a6 6 0 0 0 0-12h-72.536a6 6 0 1 0 0 12z"/><path d="m303.228 416.505h14.344a6 6 0 0 0 0-12h-14.344a6 6 0 1 0 0 12z"/><path d="m336.572 432.268h-66.536a6 6 0 0 0 0 12h66.536a6 6 0 0 0 0-12z"/><path d="m247.414 432.268h-34.345a6 6 0 0 0 0 12h34.345a6 6 0 1 0 0-12z"/><path d="m335.228 416.505h.344a6 6 0 0 0 0-12h-.344a6 6 0 1 0 0 12z"/><path d="m250.545 328.228a6 6 0 1 0 12 0v-20.723q.463.126.939.245c.249 3.933 1.3 9.1 4.671 13.137a16.816 16.816 0 0 0 12.6 5.9c1.286.055 3.007.076 4.945.076 7.73 0 18.893-.348 19.479-.366a6 6 0 0 0 -.379-12c-.174.006-17.555.549-23.537.3-2.363-.1-3.346-.952-3.879-1.585a9.079 9.079 0 0 1 -1.706-4.327c7.218-.509 15.187-3.278 22.976-10.371l6.218.121h.119a6 6 0 0 0 .116-12l-6.14-.119c-9.236-9.608-19.076-14.2-29.222-13.654-16.619.888-27.261 15.488-27.706 16.109a6 6 0 0 0 .835 7.927 49.361 49.361 0 0 0 7.675 5.46zm19.907-43.386c5.607-.274 11.311 2.169 17.052 7.279a24.74 24.74 0 0 1 -22.561 3.589 39.346 39.346 0 0 1 -9.043-4.127c3.33-2.983 8.456-6.439 14.552-6.741z"/><path d="m273.9 263.352c9.2.279 17.748 4.7 25.421 13.133a6 6 0 0 0 4.439 1.963h9.45a6 6 0 0 0 0-12h-6.867c-9.5-9.658-20.282-14.732-32.078-15.091-22.316-.673-39.806 16.079-40.539 16.792a6 6 0 0 0 8.371 8.6c.145-.141 14.503-13.928 31.803-13.397z"/><path d="m308.752 146.434-7.366 8.072-7.862-8.184a6 6 0 0 0 -8.242-.39l-10.432 8.983-7.648-8.46a6 6 0 0 0 -8.477-.425l-9.51 8.609-6.663-8a6 6 0 1 0 -9.221 7.679l10.669 12.806a6 6 0 0 0 8.637.608l9.694-8.776 7.549 8.351a6 6 0 0 0 8.366.524l10.566-9.1 8.364 8.707a5.9 5.9 0 0 0 4.4 1.843 6 6 0 0 0 4.355-1.955l11.685-12.805a6 6 0 1 0 -8.863-8.089z"/><path d="m275.562 119.2a26.256 26.256 0 1 0 -26.417-26.256 26.366 26.366 0 0 0 26.417 26.256zm0-40.512a14.257 14.257 0 1 1 -14.417 14.256 14.353 14.353 0 0 1 14.417-14.253z"/><path d="m98.17 128.141h48.468c13.524 0 22.969-7.739 22.969-18.818a21.74 21.74 0 0 0 -17.247-21.2 26.879 26.879 0 0 0 -52.96-3.118q-.909-.084-1.828-.084a20.145 20.145 0 0 0 -20.177 20.066 24.782 24.782 0 0 0 5.809 15.29c4.089 4.997 9.544 7.864 14.966 7.864zm-.6-31.22a8.233 8.233 0 0 1 4.247 1.19 6 6 0 0 0 9.062-5.794 14.611 14.611 0 0 1 -.1-1.616 14.851 14.851 0 0 1 29.7 0 14.384 14.384 0 0 1 -.182 2.142 6 6 0 0 0 6.514 6.855c.35-.033.674-.05.992-.05a9.749 9.749 0 0 1 9.8 9.675c0 6.626-9.846 6.818-10.969 6.818h-48.464c-3.938 0-8.777-6.151-8.777-11.154a8.132 8.132 0 0 1 8.177-8.066z"/><path d="m180.929 394.189h4.019v64.252a34.743 34.743 0 0 0 -27.341 33.9v3.659a6 6 0 0 0 6 6h223.911a6 6 0 0 0 6-6v-3.662a34.743 34.743 0 0 0 -27.341-33.9v-64.249h4.023a6 6 0 0 0 6-6v-29.652a6 6 0 0 0 -6-6h-13.567v-165.865h55.005c13.524 0 22.969-7.738 22.969-18.818a21.741 21.741 0 0 0 -17.247-21.2 26.879 26.879 0 0 0 -52.962-3.118q-.909-.084-1.828-.084a20.333 20.333 0 0 0 -5.937.888v-63.028a25.708 25.708 0 0 0 -9.363-19.858l-54.949-45.472a26.131 26.131 0 0 0 -33.234-.031l-55.187 45.494a25.7 25.7 0 0 0 -9.4 19.891v271.2h-13.571a6 6 0 0 0 -6 6v29.652a6 6 0 0 0 6 6.001zm175.7-236.2a8.195 8.195 0 0 1 10.184-1.35 6 6 0 0 0 9.062-5.793 14.839 14.839 0 1 1 29.6-1.618 14.4 14.4 0 0 1 -.182 2.143 6 6 0 0 0 6.52 6.854c.338-.033.669-.049.986-.049a9.748 9.748 0 0 1 9.8 9.674c0 6.627-9.846 6.818-10.969 6.818h-55zm24.771 332.011h-211.673a22.719 22.719 0 0 1 22.573-20.349h166.53a22.719 22.719 0 0 1 22.57 20.349zm-184.45-32.349v-63.462h157.227v63.462zm9.544-376.315a13.742 13.742 0 0 1 5.035-10.631l55.191-45.495a14.112 14.112 0 0 1 17.951.018l54.947 45.472a13.745 13.745 0 0 1 5.015 10.614v129.266h-138.141zm-19.563 283.2h29.246a6 6 0 0 0 0-12h-9.683v-129.956h138.139v129.957h-88.458a6 6 0 0 0 0 12h108.025v17.652h-177.271z"/></svg>